<?xml version="1.0" encoding="UTF-8" standalone="no"?>
<!DOCTYPE svg PUBLIC "-//W3C//DTD SVG 1.1//EN"
 "http://www.w3.org/Graphics/SVG/1.1/DTD/svg11.dtd">
<!-- Generated by graphviz version 14.1.2 (0)
 -->
<!-- Title: phase7 Pages: 1 -->
<svg width="653pt" height="647pt"
 viewBox="0.00 0.00 653.00 647.00" xmlns="http://www.w3.org/2000/svg" xmlns:xlink="http://www.w3.org/1999/xlink">
<g id="graph0" class="graph" transform="scale(1 1) rotate(0) translate(4 643.11)">
<title>phase7</title>
<polygon fill="#fbfaf8" stroke="none" points="-4,4 -4,-643.11 649.15,-643.11 649.15,4 -4,4"/>
<text xml:space="preserve" text-anchor="start" x="8" y="-621.86" font-family="Helvetica,sans-Serif" font-weight="bold" font-size="15.00" fill="#23201c">Phase 7 · Real routing via Edge Function</text>
<!-- need -->
<g id="node1" class="node">
<title>need</title>
<path fill="#fdf2e2" stroke="#cf8c1e" d="M243.52,-613.11C243.52,-613.11 93.74,-613.11 93.74,-613.11 87.74,-613.11 81.73,-607.11 81.73,-601.11 81.73,-601.11 81.73,-583.71 81.73,-583.71 81.73,-577.71 87.73,-571.71 93.73,-571.71 93.73,-571.71 243.52,-571.71 243.52,-571.71 249.52,-571.71 255.52,-577.71 255.52,-583.71 255.52,-583.71 255.52,-601.11 255.52,-601.11 255.52,-607.11 249.52,-613.11 243.52,-613.11"/>
<text xml:space="preserve" text-anchor="middle" x="168.63" y="-595.46" font-family="Helvetica,sans-Serif" font-size="11.00" fill="#23201c">planner step 3 needs</text>
<text xml:space="preserve" text-anchor="middle" x="168.63" y="-581.96" font-family="Helvetica,sans-Serif" font-size="11.00" fill="#23201c">travelTime(from, to, mode)</text>
</g>
<!-- chain -->
<g id="node2" class="node">
<title>chain</title>
<path fill="#fdf2e2" stroke="#cf8c1e" d="M237.52,-534.71C237.52,-534.71 99.74,-534.71 99.74,-534.71 93.74,-534.71 87.73,-528.71 87.73,-522.71 87.73,-522.71 87.73,-510.71 87.73,-510.71 87.73,-504.71 93.73,-498.71 99.73,-498.71 99.73,-498.71 237.52,-498.71 237.52,-498.71 243.52,-498.71 249.52,-504.71 249.52,-510.71 249.52,-510.71 249.52,-522.71 249.52,-522.71 249.52,-528.71 243.52,-534.71 237.52,-534.71"/>
<text xml:space="preserve" text-anchor="middle" x="168.63" y="-513.01" font-family="Helvetica,sans-Serif" font-size="11.00" fill="#23201c">TravelTimeProvider chain</text>
</g>
<!-- need&#45;&gt;chain -->
<g id="edge1" class="edge">
<title>need&#45;&gt;chain</title>
<path fill="none" stroke="#8a8378" stroke-width="1.1" d="M168.63,-571.27C168.63,-562.62 168.63,-552.4 168.63,-543.22"/>
<polygon fill="#8a8378" stroke="#8a8378" stroke-width="1.1" points="171.08,-543.49 168.63,-536.49 166.18,-543.49 171.08,-543.49"/>
</g>
<!-- cache -->
<g id="node3" class="node">
<title>cache</title>
<path fill="#ffffff" stroke="#8a8378" d="M156.81,-459.62C156.81,-459.62 11.82,-433.92 11.82,-433.92 5.91,-432.88 5.91,-430.78 11.82,-429.74 11.82,-429.74 156.81,-404.04 156.81,-404.04 162.72,-403 174.54,-403 180.45,-404.04 180.45,-404.04 325.44,-429.74 325.44,-429.74 331.35,-430.78 331.35,-432.88 325.44,-433.92 325.44,-433.92 180.45,-459.62 180.45,-459.62 174.54,-460.66 162.72,-460.66 156.81,-459.62"/>
<text xml:space="preserve" text-anchor="middle" x="168.63" y="-434.88" font-family="Helvetica,sans-Serif" font-size="11.00" fill="#23201c">route_cache hit?</text>
<text xml:space="preserve" text-anchor="middle" x="168.63" y="-421.38" font-family="Helvetica,sans-Serif" font-size="11.00" fill="#23201c">(from, to, mode, time_bucket)</text>
</g>
<!-- chain&#45;&gt;cache -->
<g id="edge2" class="edge">
<title>chain&#45;&gt;cache</title>
<path fill="none" stroke="#8a8378" stroke-width="1.1" d="M168.63,-498.54C168.63,-490.4 168.63,-480.33 168.63,-470.54"/>
<polygon fill="#8a8378" stroke="#8a8378" stroke-width="1.1" points="171.08,-470.72 168.63,-463.72 166.18,-470.72 171.08,-470.72"/>
</g>
<!-- hit -->
<g id="node4" class="node">
<title>hit</title>
<path fill="#e4f4ea" stroke="#35935f" d="M144.77,-295.3C144.77,-295.3 86.48,-295.3 86.48,-295.3 80.48,-295.3 74.48,-289.3 74.48,-283.3 74.48,-283.3 74.48,-271.3 74.48,-271.3 74.48,-265.3 80.48,-259.3 86.48,-259.3 86.48,-259.3 144.77,-259.3 144.77,-259.3 150.77,-259.3 156.77,-265.3 156.77,-271.3 156.77,-271.3 156.77,-283.3 156.77,-283.3 156.77,-289.3 150.77,-295.3 144.77,-295.3"/>
<text xml:space="preserve" text-anchor="middle" x="115.63" y="-273.6" font-family="Helvetica,sans-Serif" font-size="11.00" fill="#23201c">cached leg</text>
</g>
<!-- cache&#45;&gt;hit -->
<g id="edge3" class="edge">
<title>cache&#45;&gt;hit</title>
<path fill="none" stroke="#8a8378" stroke-width="1.1" d="M159.03,-403.21C149.19,-374.89 134.01,-331.21 124.46,-303.72"/>
<polygon fill="#8a8378" stroke="#8a8378" stroke-width="1.1" points="126.85,-303.12 122.24,-297.32 122.22,-304.73 126.85,-303.12"/>
<text xml:space="preserve" text-anchor="middle" x="159.63" y="-375.4" font-family="Helvetica,sans-Serif" font-size="9.00" fill="#6b655c">yes</text>
</g>
<!-- ef -->
<g id="node5" class="node">
<title>ef</title>
<path fill="#e4f4ea" stroke="#35935f" d="M355.02,-354.7C355.02,-354.7 238.24,-354.7 238.24,-354.7 232.24,-354.7 226.24,-348.7 226.24,-342.7 226.24,-342.7 226.24,-325.3 226.24,-325.3 226.24,-319.3 232.24,-313.3 238.24,-313.3 238.24,-313.3 355.02,-313.3 355.02,-313.3 361.02,-313.3 367.02,-319.3 367.02,-325.3 367.02,-325.3 367.02,-342.7 367.02,-342.7 367.02,-348.7 361.02,-354.7 355.02,-354.7"/>
<text xml:space="preserve" text-anchor="middle" x="296.63" y="-337.05" font-family="Helvetica,sans-Serif" font-size="11.00" fill="#23201c">Edge Function &#160;/route</text>
<text xml:space="preserve" text-anchor="middle" x="296.63" y="-323.55" font-family="Helvetica,sans-Serif" font-size="11.00" fill="#23201c">holds the API key</text>
</g>
<!-- cache&#45;&gt;ef -->
<g id="edge4" class="edge">
<title>cache&#45;&gt;ef</title>
<path fill="none" stroke="#8a8378" stroke-width="1.1" d="M200.27,-407.14C219.26,-392.92 243.41,-374.85 262.78,-360.34"/>
<polygon fill="#8a8378" stroke="#8a8378" stroke-width="1.1" points="264.21,-362.33 268.35,-356.17 261.28,-358.41 264.21,-362.33"/>
<text xml:space="preserve" text-anchor="middle" x="249.72" y="-375.4" font-family="Helvetica,sans-Serif" font-size="9.00" fill="#6b655c">no</text>
</g>
<!-- out -->
<g id="node12" class="node">
<title>out</title>
<path fill="#23201c" stroke="#23201c" stroke-width="2" d="M416.02,-36C416.02,-36 305.24,-36 305.24,-36 299.24,-36 293.24,-30 293.24,-24 293.24,-24 293.24,-12 293.24,-12 293.24,-6 299.24,0 305.24,0 305.24,0 416.02,0 416.02,0 422.02,0 428.02,-6 428.02,-12 428.02,-12 428.02,-24 428.02,-24 428.02,-30 422.02,-36 416.02,-36"/>
<text xml:space="preserve" text-anchor="middle" x="360.63" y="-14.3" font-family="Helvetica,sans-Serif" font-size="11.00" fill="#fbfaf8">leg minutes + mode</text>
</g>
<!-- hit&#45;&gt;out -->
<g id="edge10" class="edge">
<title>hit&#45;&gt;out</title>
<path fill="none" stroke="#8a8378" stroke-width="1.1" d="M95.09,-258.86C90.44,-253.73 86.13,-247.75 83.63,-241.3 74.8,-218.55 73.62,-208.65 83.63,-186.4 119.94,-105.73 216.35,-60.97 285.21,-38.46"/>
<polygon fill="#8a8378" stroke="#8a8378" stroke-width="1.1" points="285.53,-40.93 291.45,-36.47 284.04,-36.26 285.53,-40.93"/>
</g>
<!-- ors -->
<g id="node6" class="node">
<title>ors</title>
<path fill="#f2ebfa" stroke="#7d54c2" d="M206.15,-234.55C206.15,-234.55 105.11,-234.55 105.11,-234.55 99.11,-234.55 93.11,-228.55 93.11,-222.55 93.11,-222.55 93.11,-205.15 93.11,-205.15 93.11,-199.15 99.11,-193.15 105.11,-193.15 105.11,-193.15 206.15,-193.15 206.15,-193.15 212.15,-193.15 218.15,-199.15 218.15,-205.15 218.15,-205.15 218.15,-222.55 218.15,-222.55 218.15,-228.55 212.15,-234.55 206.15,-234.55"/>
<text xml:space="preserve" text-anchor="middle" x="155.63" y="-216.9" font-family="Helvetica,sans-Serif" font-size="11.00" fill="#23201c">OpenRouteService</text>
<text xml:space="preserve" text-anchor="middle" x="155.63" y="-203.4" font-family="Helvetica,sans-Serif" font-size="11.00" fill="#23201c">foot / bike / car</text>
</g>
<!-- ef&#45;&gt;ors -->
<g id="edge5" class="edge">
<title>ef&#45;&gt;ors</title>
<path fill="none" stroke="#8a8378" stroke-width="1.1" d="M272.71,-312.96C248.81,-292.93 211.98,-262.06 186.02,-240.31"/>
<polygon fill="#8a8378" stroke="#8a8378" stroke-width="1.1" points="187.88,-238.68 180.94,-236.06 184.73,-242.43 187.88,-238.68"/>
</g>
<!-- nav -->
<g id="node7" class="node">
<title>nav</title>
<path fill="#f2ebfa" stroke="#7d54c2" d="M344.9,-241.3C344.9,-241.3 248.36,-241.3 248.36,-241.3 242.36,-241.3 236.36,-235.3 236.36,-229.3 236.36,-229.3 236.36,-198.4 236.36,-198.4 236.36,-192.4 242.36,-186.4 248.36,-186.4 248.36,-186.4 344.9,-186.4 344.9,-186.4 350.9,-186.4 356.9,-192.4 356.9,-198.4 356.9,-198.4 356.9,-229.3 356.9,-229.3 356.9,-235.3 350.9,-241.3 344.9,-241.3"/>
<text xml:space="preserve" text-anchor="middle" x="296.63" y="-223.65" font-family="Helvetica,sans-Serif" font-size="11.00" fill="#23201c">Navitia or</text>
<text xml:space="preserve" text-anchor="middle" x="296.63" y="-210.15" font-family="Helvetica,sans-Serif" font-size="11.00" fill="#23201c">Google Directions</text>
<text xml:space="preserve" text-anchor="middle" x="296.63" y="-196.65" font-family="Helvetica,sans-Serif" font-size="11.00" fill="#23201c">transit</text>
</g>
<!-- ef&#45;&gt;nav -->
<g id="edge6" class="edge">
<title>ef&#45;&gt;nav</title>
<path fill="none" stroke="#8a8378" stroke-width="1.1" d="M296.63,-312.96C296.63,-295.79 296.63,-270.66 296.63,-250.14"/>
<polygon fill="#8a8378" stroke="#8a8378" stroke-width="1.1" points="299.08,-250.32 296.63,-243.32 294.18,-250.32 299.08,-250.32"/>
</g>
<!-- hav -->
<g id="node9" class="node">
<title>hav</title>
<path fill="#fdf2e2" stroke="#cf8c1e" d="M438.15,-168.4C438.15,-168.4 331.11,-168.4 331.11,-168.4 325.11,-168.4 319.11,-162.4 319.11,-156.4 319.11,-156.4 319.11,-139 319.11,-139 319.11,-133 325.11,-127 331.11,-127 331.11,-127 438.15,-127 438.15,-127 444.15,-127 450.15,-133 450.15,-139 450.15,-139 450.15,-156.4 450.15,-156.4 450.15,-162.4 444.15,-168.4 438.15,-168.4"/>
<text xml:space="preserve" text-anchor="middle" x="384.63" y="-150.75" font-family="Helvetica,sans-Serif" font-size="11.00" fill="#23201c">haversine × 1.3</text>
<text xml:space="preserve" text-anchor="middle" x="384.63" y="-137.25" font-family="Helvetica,sans-Serif" font-size="11.00" fill="#23201c">terminal, never null</text>
</g>
<!-- ef&#45;&gt;hav -->
<g id="edge11" class="edge">
<title>ef&#45;&gt;hav</title>
<path fill="none" stroke="#cf4d4d" stroke-width="1.1" d="M316,-312.87C331.77,-295.34 353.34,-268.54 365.63,-241.3 374.83,-220.89 379.62,-195.95 382.09,-177.09"/>
<polygon fill="#cf4d4d" stroke="#cf4d4d" stroke-width="1.1" points="384.51,-177.52 382.9,-170.28 379.64,-176.94 384.51,-177.52"/>
<text xml:space="preserve" text-anchor="middle" x="387.83" y="-280" font-family="Helvetica,sans-Serif" font-size="9.00" fill="#cf4d4d">provider down</text>
<text xml:space="preserve" text-anchor="middle" x="387.83" y="-268.75" font-family="Helvetica,sans-Serif" font-size="9.00" fill="#cf4d4d">or over quota</text>
</g>
<!-- key -->
<g id="node13" class="node">
<title>key</title>
<path fill="#e4f4ea" stroke="#35935f" d="M526.15,-234.55C526.15,-234.55 425.11,-234.55 425.11,-234.55 419.11,-234.55 413.11,-228.55 413.11,-222.55 413.11,-222.55 413.11,-205.15 413.11,-205.15 413.11,-199.15 419.11,-193.15 425.11,-193.15 425.11,-193.15 526.15,-193.15 526.15,-193.15 532.15,-193.15 538.15,-199.15 538.15,-205.15 538.15,-205.15 538.15,-222.55 538.15,-222.55 538.15,-228.55 532.15,-234.55 526.15,-234.55"/>
<text xml:space="preserve" text-anchor="middle" x="475.63" y="-216.9" font-family="Helvetica,sans-Serif" font-size="11.00" fill="#23201c">key never reaches</text>
<text xml:space="preserve" text-anchor="middle" x="475.63" y="-203.4" font-family="Helvetica,sans-Serif" font-size="11.00" fill="#23201c">the Pages build</text>
</g>
<!-- ef&#45;&gt;key -->
<g id="edge15" class="edge">
<title>ef&#45;&gt;key</title>
<path fill="none" stroke="#8a8378" stroke-width="1.1" stroke-dasharray="5,2" d="M367.16,-323.22C402.72,-316.92 440.95,-307.59 453.63,-295.3 467.44,-281.91 472.84,-260.76 474.84,-243.5"/>
<polygon fill="#8a8378" stroke="#8a8378" stroke-width="1.1" points="477.28,-243.74 475.46,-236.55 472.4,-243.31 477.28,-243.74"/>
</g>
<!-- ok -->
<g id="node8" class="node">
<title>ok</title>
<path fill="#e4f4ea" stroke="#35935f" d="M344.4,-109C344.4,-109 232.86,-109 232.86,-109 226.86,-109 220.86,-103 220.86,-97 220.86,-97 220.86,-85 220.86,-85 220.86,-79 226.86,-73 232.86,-73 232.86,-73 344.4,-73 344.4,-73 350.4,-73 356.4,-79 356.4,-85 356.4,-85 356.4,-97 356.4,-97 356.4,-103 350.4,-109 344.4,-109"/>
<text xml:space="preserve" text-anchor="middle" x="288.63" y="-87.3" font-family="Helvetica,sans-Serif" font-size="11.00" fill="#23201c">store in route_cache</text>
</g>
<!-- ors&#45;&gt;ok -->
<g id="edge7" class="edge">
<title>ors&#45;&gt;ok</title>
<path fill="none" stroke="#8a8378" stroke-width="1.1" d="M177.59,-192.89C201.16,-171.48 238.55,-137.51 263.33,-114.99"/>
<polygon fill="#8a8378" stroke="#8a8378" stroke-width="1.1" points="264.89,-116.88 268.42,-110.36 261.59,-113.26 264.89,-116.88"/>
</g>
<!-- nav&#45;&gt;ok -->
<g id="edge8" class="edge">
<title>nav&#45;&gt;ok</title>
<path fill="none" stroke="#8a8378" stroke-width="1.1" d="M294.85,-186.03C293.51,-165.77 291.68,-138.11 290.35,-118.05"/>
<polygon fill="#8a8378" stroke="#8a8378" stroke-width="1.1" points="292.8,-117.9 289.89,-111.07 287.91,-118.22 292.8,-117.9"/>
</g>
<!-- ok&#45;&gt;out -->
<g id="edge9" class="edge">
<title>ok&#45;&gt;out</title>
<path fill="none" stroke="#8a8378" stroke-width="1.1" d="M306.06,-72.81C315.36,-63.64 326.95,-52.21 337.05,-42.25"/>
<polygon fill="#8a8378" stroke="#8a8378" stroke-width="1.1" points="338.66,-44.1 341.93,-37.44 335.22,-40.61 338.66,-44.1"/>
</g>
<!-- hav&#45;&gt;out -->
<g id="edge12" class="edge">
<title>hav&#45;&gt;out</title>
<path fill="none" stroke="#8a8378" stroke-width="1.1" d="M380.88,-126.75C376.72,-104.63 370.01,-68.9 365.46,-44.7"/>
<polygon fill="#8a8378" stroke="#8a8378" stroke-width="1.1" points="367.9,-44.42 364.2,-37.99 363.08,-45.32 367.9,-44.42"/>
</g>
<!-- gbfs -->
<g id="node10" class="node">
<title>gbfs</title>
<path fill="#f2ebfa" stroke="#7d54c2" d="M633.15,-234.55C633.15,-234.55 568.11,-234.55 568.11,-234.55 562.11,-234.55 556.11,-228.55 556.11,-222.55 556.11,-222.55 556.11,-205.15 556.11,-205.15 556.11,-199.15 562.11,-193.15 568.11,-193.15 568.11,-193.15 633.15,-193.15 633.15,-193.15 639.15,-193.15 645.15,-199.15 645.15,-205.15 645.15,-205.15 645.15,-222.55 645.15,-222.55 645.15,-228.55 639.15,-234.55 633.15,-234.55"/>
<text xml:space="preserve" text-anchor="middle" x="600.63" y="-216.9" font-family="Helvetica,sans-Serif" font-size="11.00" fill="#23201c">GBFS feed</text>
<text xml:space="preserve" text-anchor="middle" x="600.63" y="-203.4" font-family="Helvetica,sans-Serif" font-size="11.00" fill="#23201c">free, no key</text>
</g>
<!-- avail -->
<g id="node11" class="node">
<title>avail</title>
<path fill="#fdf2e2" stroke="#cf8c1e" d="M627.52,-109C627.52,-109 477.74,-109 477.74,-109 471.74,-109 465.74,-103 465.74,-97 465.74,-97 465.74,-85 465.74,-85 465.74,-79 471.74,-73 477.74,-73 477.74,-73 627.52,-73 627.52,-73 633.52,-73 639.52,-79 639.52,-85 639.52,-85 639.52,-97 639.52,-97 639.52,-103 633.52,-109 627.52,-109"/>
<text xml:space="preserve" text-anchor="middle" x="552.63" y="-87.3" font-family="Helvetica,sans-Serif" font-size="11.00" fill="#23201c">“3 bikes at Piazza Navona”</text>
</g>
<!-- gbfs&#45;&gt;avail -->
<g id="edge13" class="edge">
<title>gbfs&#45;&gt;avail</title>
<path fill="none" stroke="#8a8378" stroke-width="1.1" stroke-dasharray="5,2" d="M592.7,-192.89C584.45,-172.12 571.5,-139.52 562.57,-117.03"/>
<polygon fill="#8a8378" stroke="#8a8378" stroke-width="1.1" points="564.95,-116.39 560.09,-110.79 560.4,-118.2 564.95,-116.39"/>
</g>
<!-- avail&#45;&gt;out -->
<g id="edge14" class="edge">
<title>avail&#45;&gt;out</title>
<path fill="none" stroke="#8a8378" stroke-width="1.1" stroke-dasharray="5,2" d="M505.66,-72.63C478.47,-62.57 444.09,-49.86 415.64,-39.34"/>
<polygon fill="#8a8378" stroke="#8a8378" stroke-width="1.1" points="416.76,-37.14 409.34,-37.01 415.06,-41.74 416.76,-37.14"/>
</g>
</g>
</svg>
